# xmcd
#
# Track frame offsets: 
#        150
#        67412
#        142637
#        181112
#        212612
#        233612
#
# Disc length: 4020 seconds
#
# Revision: 1
# Processed by: cddbd v1.5.2PL0 Copyright (c) Steve Scherf et al.
# Submitted via: ExactAudioCopy v1.0b1
#
DISCID=4b0fb206
DTITLE=Iannis Xenakis - Orchestral Works and Chamber Music (col legno)
DYEAR=2000
DGENRE=Classical
TTITLE0=Ata (1987) (Gielen)
TTITLE1=N'Shima (1975) (Safir)
TTITLE2=Metastaseis (1953-1954) (Rosbaud)
TTITLE3=Ioolkos (1996) (Ryan)
TTITLE4=Charisma (1971) (Deinzer-Palm)
TTITLE5=Jonchaies (1977) (Amy)
EXTD=YEAR: 2000 ID3G: 32
EXTT0=
EXTT1=
EXTT2=
EXTT3=
EXTT4=
EXTT5=
PLAYORDER=
